<svg xmlns="http://www.w3.org/2000/svg" viewBox="0 0 40 40" fill="none">
  <rect width="40" height="40" rx="8" fill="#3b82f6"/>
  <path d="M20 8C13.3726 8 8 13.3726 8 20C8 26.6274 13.3726 32 20 32C26.6274 32 32 26.6274 32 20C32 13.3726 26.6274 8 20 8ZM20 10.4C25.3019 10.4 29.6 14.6981 29.6 20C29.6 25.3019 25.3019 29.6 20 29.6C14.6981 29.6 10.4 25.3019 10.4 20C10.4 14.6981 14.6981 10.4 20 10.4Z" fill="white" fill-opacity="0.2"/>
  <path d="M20 12L20 20L26 24" stroke="white" stroke-width="2.5" stroke-linecap="round" stroke-linejoin="round"/>
  <circle cx="20" cy="20" r="3" fill="white"/>
  <path d="M30 20C30 25.5228 25.5228 30 20 30C14.4772 30 10 25.5228 10 20" stroke="white" stroke-width="2" stroke-linecap="round" stroke-dasharray="4 4"/>
</svg>
